# xmcd CD database file
#
# Track frame offsets:
#	150
#	13540
#	26981
#	48324
#	62485
#	76242
#	90092
#	107885
#	122306
#	141404
#	157807
#	174087
#	186720
#	203790
#
# Disc length: 3126 seconds
#
# Revision: 0
# Processed by: cddbd v1.5.2PL0 Copyright (c) Steve Scherf et al.
# Submitted via: CDex 1.51
#
DISCID=ab0c340e
DTITLE=Various Artist - Mr. Music Country 08-07
DYEAR=2007
DGENRE=Country
TTITLE0=Patty Booker - The Hell That I've Been Through
TTITLE1=Marty Raybon - Come Early Morning
TTITLE2=George jones and Merle Haggard - Born With The Blues
TTITLE3=Clay Cooper - Why Can't We All Get A Long Neck
TTITLE4=Pat C. Miller - A Cowboy's Sweetheart
TTITLE5=Billy Keeble - You Don't Care What Happens To Me
TTITLE6=Lucas Hudgins - Honky Tonk Illusion
TTITLE7=Jann Browne - Sweethearts In Heaven
TTITLE8=Ralph Parker - I've Had A Few
TTITLE9=Paul Brand - Wizard In My Gizzard
TTITLE10=Brad and Shelly - Legally
TTITLE11=Ronnie Mason with Levi Mullen - Tonight Carmen
TTITLE12=Lori Cline - Late Blossom Special
TTITLE13=Vernon Oxford - The Last Day Of New Orleans
EXTD=YEAR: 2007
EXTT0=
EXTT1=
EXTT2=
EXTT3=
EXTT4=
EXTT5=
EXTT6=
EXTT7=
EXTT8=
EXTT9=
EXTT10=
EXTT11=
EXTT12=
EXTT13=
PLAYORDER=
